<?xml version="1.0" encoding="UTF-8" standalone="no"?>
<svg
   xmlns:dc="http://purl.org/dc/elements/1.1/"
   xmlns:cc="http://creativecommons.org/ns#"
   xmlns:rdf="http://www.w3.org/1999/02/22-rdf-syntax-ns#"
   xmlns:svg="http://www.w3.org/2000/svg"
   xmlns="http://www.w3.org/2000/svg"
   id="svg8"
   version="1.1"
   viewBox="0 0 8.4666665 8.4666669"
   height="32"
   width="32">
  <defs
     id="defs2" />
  <metadata
     id="metadata5">
    <rdf:RDF>
      <cc:Work
         rdf:about="">
        <dc:format>image/svg+xml</dc:format>
        <dc:type
           rdf:resource="http://purl.org/dc/dcmitype/StillImage" />
        <dc:title></dc:title>
      </cc:Work>
    </rdf:RDF>
  </metadata>
  <g
     transform="translate(0,-288.53332)"
     id="layer1">
    <g
       id="g4554">
      <path
         style="color:#000000;overflow:visible;opacity:1;vector-effect:none;fill:none;fill-opacity:1;fill-rule:evenodd;stroke:#ffffff;stroke-width:0.54221565;stroke-linecap:butt;stroke-linejoin:miter;stroke-miterlimit:4;stroke-dasharray:none;stroke-dashoffset:0;stroke-opacity:1"
         id="path4500-4-2"
         d="m 6.1656448,294.80293 -2.710257,-0.91908 -2.2935978,1.71161 0.036577,-2.86162 -2.3365961,-1.65242 2.7328624,-0.84951 0.849502,-2.73286 1.6524254,2.3366 2.8616172,-0.0366 -1.7116074,2.2936 z"
         transform="matrix(0.72251686,0.11713644,-0.11713644,0.72251686,36.151459,81.943232)" />
      <path
         style="color:#000000;overflow:visible;opacity:1;vector-effect:none;fill:#ffdd55;fill-opacity:1;fill-rule:evenodd;stroke:#000000;stroke-width:0.18073854;stroke-linecap:butt;stroke-linejoin:miter;stroke-miterlimit:4;stroke-dasharray:none;stroke-dashoffset:0;stroke-opacity:1"
         id="path4500"
         d="m 6.1656448,294.80293 -2.710257,-0.91908 -2.2935978,1.71161 0.036577,-2.86162 -2.3365961,-1.65242 2.7328624,-0.84951 0.849502,-2.73286 1.6524254,2.3366 2.8616172,-0.0366 -1.7116074,2.2936 z"
         transform="matrix(0.72251687,0.11713644,-0.11713644,0.72251687,36.151796,81.915005)" />
      <path
         style="color:#000000;overflow:visible;opacity:1;vector-effect:none;fill:#ffcc00;fill-opacity:1;fill-rule:evenodd;stroke:none;stroke-width:10.92970085;stroke-linecap:butt;stroke-linejoin:miter;stroke-miterlimit:4;stroke-dasharray:none;stroke-dashoffset:0;stroke-opacity:1"
         id="path4500-6"
         d="m 6.1656448,294.80293 -2.710257,-0.91908 -2.2935978,1.71161 0.036577,-2.86162 -2.3365961,-1.65242 2.7328624,-0.84951 0.849502,-2.73286 1.6524254,2.3366 2.8616172,-0.0366 -1.7116074,2.2936 z"
         transform="matrix(0.36125844,0.05856822,-0.05856822,0.36125844,20.192649,187.33377)" />
    </g>
  </g>
</svg>
