<?xml version="1.0" encoding="UTF-8" standalone="no"?>
<svg
   xmlns:dc="http://purl.org/dc/elements/1.1/"
   xmlns:cc="http://creativecommons.org/ns#"
   xmlns:rdf="http://www.w3.org/1999/02/22-rdf-syntax-ns#"
   xmlns:svg="http://www.w3.org/2000/svg"
   xmlns="http://www.w3.org/2000/svg"
   xmlns:xlink="http://www.w3.org/1999/xlink"
   id="svg2"
   preserveAspectRatio="xMidYMid meet"
   viewBox="0 0 25.6 25.6"
   height="32"
   width="32"
   version="1.0">
  <defs
     id="defs12" />
  <metadata
     id="metadata4">
Created by potrace 1.11, written by Peter Selinger 2001-2013
<rdf:RDF>
  <cc:Work
     rdf:about="">
    <dc:format>image/svg+xml</dc:format>
    <dc:type
       rdf:resource="http://purl.org/dc/dcmitype/StillImage" />
    <dc:title></dc:title>
  </cc:Work>
</rdf:RDF>
</metadata>
  <g
     id="g4600">
    <path
       style="fill:none;fill-rule:evenodd;stroke:#ffffff;stroke-width:4.8;stroke-linecap:round;stroke-linejoin:miter;stroke-miterlimit:4;stroke-dasharray:none;stroke-opacity:1"
       d="m 7.259855,2.8000001 c 0,0 1.9109229,2.5128599 2.3094009,4 1.0352761,3.8637029 1.0352761,8.1362959 0,11.9999999 -0.398478,1.48714 -2.3094009,4 -2.3094009,4"
       id="path4554-8" />
    <use
       x="0"
       y="0"
       xlink:href="#path4554-8"
       id="use4556-7"
       transform="matrix(-1,0,0,1,25.6,0)"
       width="100%"
       height="100%"
       style="stroke:#ffffff;stroke-width:4.8;stroke-miterlimit:4;stroke-dasharray:none;stroke-opacity:1" />
  </g>
  <g
     transform="translate(18.340145,-7.6)"
     id="g4604">
    <path
       style="fill:none;fill-rule:evenodd;stroke:#760000;stroke-width:2.4000001;stroke-linecap:round;stroke-linejoin:miter;stroke-miterlimit:4;stroke-dasharray:none;stroke-opacity:1"
       d="m -11.08029,10.4 c 0,0 1.910923,2.51286 2.309401,4 1.035276,3.863703 1.035276,8.136297 0,12 -0.398478,1.48714 -2.309401,4 -2.309401,4"
       id="path4554" />
    <use
       x="0"
       y="0"
       xlink:href="#path4554"
       id="use4556"
       transform="matrix(-1,0,0,1,-11.08029,0)"
       width="100%"
       height="100%"
       style="stroke-width:2.4000001;stroke-miterlimit:4;stroke-dasharray:none" />
  </g>
</svg>
