<?xml version="1.0" encoding="UTF-8" standalone="no"?>
<svg
   xmlns:dc="http://purl.org/dc/elements/1.1/"
   xmlns:cc="http://creativecommons.org/ns#"
   xmlns:rdf="http://www.w3.org/1999/02/22-rdf-syntax-ns#"
   xmlns:svg="http://www.w3.org/2000/svg"
   xmlns="http://www.w3.org/2000/svg"
   version="1.1"
   id="svg4178"
   viewBox="0 0 16 16"
   height="16"
   width="16">
  <defs
     id="defs4180" />
  <metadata
     id="metadata4183">
    <rdf:RDF>
      <cc:Work
         rdf:about="">
        <dc:format>image/svg+xml</dc:format>
        <dc:type
           rdf:resource="http://purl.org/dc/dcmitype/StillImage" />
        <dc:title></dc:title>
      </cc:Work>
    </rdf:RDF>
  </metadata>
  <g
     transform="translate(0,-1036.3622)"
     id="layer1">
    <path
       id="path4726"
       d="m 1.0267857,1038.3444 2.7232143,-0.045 1.5178572,0.4911 1.6071428,0.8035 0.625,0.8483 0.9375,2.1428 0.7589286,5.8482"
       style="fill:none;fill-rule:evenodd;stroke:#198fe8;stroke-width:1px;stroke-linecap:round;stroke-linejoin:round;stroke-opacity:1" />
    <path
       id="path4728"
       d="m 0.84821428,1051.1122 5.54854912,-0 0.00502,-2.2535 -0.6272322,-0.01 -0.011718,-0.7571 0.342864,-0.01 -0.018416,-2.154 -0.4399625,-0.1789 -0.1897324,-2.2282 0.3013393,-0.2721 -0.041295,-0.8025 -0.5117189,-0.4068 -0.044643,-0.9152 0.5664063,-0.4646 -0.1227683,-1.1411 -4.75781248,-0 z"
       style="fill:#000000;fill-opacity:1;fill-rule:evenodd;stroke:none;stroke-width:1px;stroke-linecap:butt;stroke-linejoin:miter;stroke-opacity:1" />
    <path
       style="fill:none;fill-rule:evenodd;stroke:#0300ff;stroke-width:1px;stroke-linecap:round;stroke-linejoin:round;stroke-opacity:1"
       d="m 1.0902975,1038.61 3.3937308,-0.045 1.7389508,0.4465 1.5650557,0.8035 0.6086328,0.8483 0.9129495,2.1428 0.7390529,5.8482"
       id="path4740" />
    <path
       style="fill:none;fill-rule:evenodd;stroke:#198fe8;stroke-width:1px;stroke-linecap:round;stroke-linejoin:round;stroke-opacity:1"
       d="m 1.09375,1038.3667 5.7142857,-0.045 1.8080358,0.5134 1.6071435,0.8482 0.803571,1.0045 0.825893,1.8527 0.758928,5.6919"
       id="path4787" />
    <path
       id="path4744"
       d="m 1.0125807,1038.3575 5.0813782,-0.045 1.7389508,0.4465 1.5650557,0.8035 0.6086326,0.8483 0.91295,2.1428 0.739053,5.8482"
       style="fill:none;fill-rule:evenodd;stroke:#0300ff;stroke-width:1px;stroke-linecap:round;stroke-linejoin:round;stroke-opacity:1" />
    <path
       style="fill:none;fill-rule:evenodd;stroke:#198fe8;stroke-width:1px;stroke-linecap:round;stroke-linejoin:round;stroke-opacity:1"
       d="m 2.463561,1038.389 2.7232143,-0.045 1.7857143,0.4465 1.6071428,0.8035 0.6249996,0.8483 0.9375,2.1428 0.696429,5.9419"
       id="path4742" />
    <path
       id="path4746"
       d="m 7.3424036,1050.391 1.6541089,-0.9313 1.7867225,0.8997 2.239214,-1.0428 2.053935,1.1691"
       style="color:#000000;clip-rule:nonzero;display:inline;overflow:visible;visibility:visible;opacity:1;isolation:auto;mix-blend-mode:normal;color-interpolation:sRGB;color-interpolation-filters:linearRGB;solid-color:#000000;solid-opacity:1;fill:none;fill-opacity:1;fill-rule:evenodd;stroke:#0300ff;stroke-width:1px;stroke-linecap:round;stroke-linejoin:round;stroke-miterlimit:4;stroke-dasharray:none;stroke-dashoffset:0;stroke-opacity:1;color-rendering:auto;image-rendering:auto;shape-rendering:auto;text-rendering:auto;enable-background:accumulate" />
    <path
       style="color:#000000;clip-rule:nonzero;display:inline;overflow:visible;visibility:visible;opacity:1;isolation:auto;mix-blend-mode:normal;color-interpolation:sRGB;color-interpolation-filters:linearRGB;solid-color:#000000;solid-opacity:1;fill:none;fill-opacity:1;fill-rule:evenodd;stroke:#198fe8;stroke-width:1px;stroke-linecap:round;stroke-linejoin:round;stroke-miterlimit:4;stroke-dasharray:none;stroke-dashoffset:0;stroke-opacity:1;color-rendering:auto;image-rendering:auto;shape-rendering:auto;text-rendering:auto;enable-background:accumulate"
       d="m 7.2950527,1051.0213 1.7009839,-0.8219 1.8179734,0.6966 2.348589,-0.6835 1.94456,0.8098"
       id="path4762" />
  </g>
</svg>
